# xmcd CD database file
#
# Track frame offsets:
#	187
#	23165
#	44372
#	67355
#
# Disc length: 1177 seconds
#
# Revision: 0
# Processed by: cddbd v1.5PL3 Copyright (c) Steve Scherf et al.
# Submitted via: CDex 1.40Release
#
DISCID=35049704
DTITLE=ZARD - もう探さない
DYEAR=1991
DGENRE=Japanese Rock
TTITLE0=もう探さない
TTITLE1=こんなに愛しても
TTITLE2=もう探さない (オリジナル・カラオケ)
TTITLE3=こんなに愛しても ()オリジナル・カラオケ
EXTD=YEAR: 1991
EXTT0=
EXTT1=
EXTT2=
EXTT3=
PLAYORDER=
